<svg xmlns="http://www.w3.org/2000/svg" viewBox="0 0 150 145.15"><defs><style>.cls-1{fill:#fff;}.cls-2{fill:#efe555;}.cls-3{fill:#8500ff;}.cls-4{fill:#ef5aff;}.cls-5{fill:#76ff99;}.cls-6{fill:#6feefc;}.cls-7{opacity:0.79;}</style></defs><g id="Capa_2" data-name="Capa 2"><g id="_Layer_" data-name="&lt;Layer&gt;"><path class="cls-1" d="M121.87,52.39a47.79,47.79,0,0,0-8.26-12.5l.63-.6a123.47,123.47,0,0,0,12.81-14,30.42,30.42,0,0,0,3.21-5c.72-1.55.81-2.58.26-3.15s-1.58-.54-3.16.12a29.84,29.84,0,0,0-5.18,3,122.36,122.36,0,0,0-14.59,12.17l-1.16,1.12a47.54,47.54,0,0,0-26.88-9.14,113,113,0,0,0-1.4-16.93,27.17,27.17,0,0,0-1.38-5.25C76.17.7,75.52,0,74.76,0s-1.43.72-2,2.2a27.2,27.2,0,0,0-1.39,5.4A116.35,116.35,0,0,0,70,25a47.52,47.52,0,0,0-24.08,11.9c-.82-.93-1.67-1.86-2.51-2.77a122.9,122.9,0,0,0-13.85-13,31.34,31.34,0,0,0-5-3.29C23,17.1,22,17,21.38,17.54s-.56,1.57.07,3.16a29.94,29.94,0,0,0,2.91,5.22,123.69,123.69,0,0,0,12,14.78c1.06,1.13,2.13,2.26,3.21,3.35A47.67,47.67,0,0,0,30.63,67.3c-1.16,0-2.34,0-3.5,0A123.36,123.36,0,0,0,8.18,68.55,30.7,30.7,0,0,0,2.37,70C.77,70.59,0,71.27,0,72.07s.77,1.48,2.37,2.1a30.7,30.7,0,0,0,5.81,1.42,123.36,123.36,0,0,0,19,1.29c1.16,0,2.32,0,3.47,0a47.82,47.82,0,0,0,7.73,21.77,122.68,122.68,0,0,0-12.72,14,30.42,30.42,0,0,0-3.21,5c-.72,1.55-.81,2.58-.26,3.16s1.56.53,3.12-.1a29.91,29.91,0,0,0,5.09-2.93,120.58,120.58,0,0,0,14.09-11.65,47.79,47.79,0,0,0,26,13.34,118.56,118.56,0,0,0,1.34,17.9,29.33,29.33,0,0,0,1.4,5.56c.61,1.52,1.29,2.27,2.06,2.27s1.44-.73,2-2.22a27.39,27.39,0,0,0,1.39-5.43A115.75,115.75,0,0,0,80,120l.87,0c.22,6.66.1,11.89.1,12a3.9,3.9,0,0,0,6.67,2.84h0a.41.41,0,0,0,.31-.14,3.86,3.86,0,0,0,2.8,1.3h.1a3.87,3.87,0,0,0,2.54-.94,3.89,3.89,0,0,0,5-.35,3.09,3.09,0,0,0,.74.12h.23A3.93,3.93,0,0,0,103.3,131c0-.48.19-8.67-.33-17.8l.45-.28A110.6,110.6,0,0,0,116,124.37a26.93,26.93,0,0,0,4.56,2.9c1.41.64,2.36.71,2.92.19s.56-1.43,0-2.84a25.69,25.69,0,0,0-2.43-4.61,108.35,108.35,0,0,0-10-12.91,47.73,47.73,0,0,0,14.89-30.25,112,112,0,0,0,16.78-1.41,25.86,25.86,0,0,0,5.18-1.37c1.43-.59,2.12-1.25,2.12-2s-.69-1.41-2.12-2a26,26,0,0,0-5.19-1.37,112.16,112.16,0,0,0-16.79-1.41A47.55,47.55,0,0,0,121.87,52.39Z"/><circle class="cls-2" cx="78.26" cy="72.19" r="47.46"/><ellipse class="cls-2" cx="74.76" cy="27.13" rx="4.39" ry="26.72"/><ellipse class="cls-2" cx="75.19" cy="118.01" rx="4.39" ry="26.72"/><ellipse class="cls-2" cx="122.87" cy="72.07" rx="26.72" ry="4.39"/><ellipse class="cls-2" cx="27.13" cy="72.07" rx="26.72" ry="4.39"/><ellipse class="cls-2" cx="104.98" cy="107.58" rx="4.39" ry="26.72" transform="translate(-45.15 100.17) rotate(-42.87)"/><ellipse class="cls-2" cx="39.84" cy="37.42" rx="4.39" ry="26.72" transform="translate(-14.82 37.1) rotate(-42.87)"/><ellipse class="cls-2" cx="41.75" cy="102" rx="26.72" ry="4.39" transform="translate(-58.93 57.16) rotate(-43.74)"/><ellipse class="cls-2" cx="110.91" cy="35.82" rx="26.72" ry="4.39" transform="translate(6.01 86.62) rotate(-43.74)"/><path d="M99.49,83a8.13,8.13,0,0,1-8.14-8.13V58.41a8.14,8.14,0,1,1,16.27,0V74.88A8.13,8.13,0,0,1,99.49,83Z"/><path d="M75.19,145.15c-.77,0-1.45-.75-2.06-2.27a29.33,29.33,0,0,1-1.4-5.56,118.56,118.56,0,0,1-1.34-17.9,47.79,47.79,0,0,1-25.95-13.34,120.58,120.58,0,0,1-14.09,11.65,29.91,29.91,0,0,1-5.09,2.93c-1.56.63-2.58.66-3.12.1s-.46-1.61.26-3.16a30.42,30.42,0,0,1,3.21-5,122.68,122.68,0,0,1,12.72-14A47.82,47.82,0,0,1,30.6,76.84c-1.15,0-2.31,0-3.47,0A123.36,123.36,0,0,1,8.18,75.59a30.7,30.7,0,0,1-5.81-1.42C.77,73.55,0,72.86,0,72.07S.77,70.59,2.37,70a30.7,30.7,0,0,1,5.81-1.42,123.36,123.36,0,0,1,19-1.29c1.16,0,2.34,0,3.5,0a47.67,47.67,0,0,1,8.89-23.25c-1.08-1.09-2.15-2.22-3.21-3.35a123.69,123.69,0,0,1-12-14.78,29.94,29.94,0,0,1-2.91-5.22c-.63-1.59-.65-2.62-.07-3.16s1.61-.44,3.15.3a31.34,31.34,0,0,1,5,3.29,122.9,122.9,0,0,1,13.85,13c.84.91,1.69,1.84,2.51,2.77A47.52,47.52,0,0,1,70,25,116.35,116.35,0,0,1,71.34,7.6a27.2,27.2,0,0,1,1.39-5.4C73.33.72,74,0,74.76,0s1.41.7,2,2.14a27.17,27.17,0,0,1,1.38,5.25,113,113,0,0,1,1.4,16.93,47.54,47.54,0,0,1,26.88,9.14l1.16-1.12a122.36,122.36,0,0,1,14.59-12.17,29.84,29.84,0,0,1,5.18-3c1.58-.66,2.61-.7,3.16-.12s.46,1.6-.26,3.15a30.42,30.42,0,0,1-3.21,5,123.47,123.47,0,0,1-12.81,14l-.63.6a47.76,47.76,0,0,1,12.29,27.4,112.16,112.16,0,0,1,16.79,1.41,26,26,0,0,1,5.19,1.37c1.43.59,2.12,1.25,2.12,2s-.69,1.41-2.12,2a25.86,25.86,0,0,1-5.18,1.37,112,112,0,0,1-16.78,1.41A47.73,47.73,0,0,1,111,107.1a108.35,108.35,0,0,1,10,12.91,25.69,25.69,0,0,1,2.43,4.61c.51,1.41.49,2.34,0,2.84s-1.51.45-2.92-.19a26.93,26.93,0,0,1-4.56-2.9,110.6,110.6,0,0,1-12.54-11.44A47.81,47.81,0,0,1,80,120a115.75,115.75,0,0,1-1.37,17.46,27.39,27.39,0,0,1-1.39,5.43C76.63,144.42,76,145.15,75.19,145.15ZM44.45,105.07a.39.39,0,0,1,.29.13,46.65,46.65,0,0,0,26.13,13.45.42.42,0,0,1,.35.41,118.58,118.58,0,0,0,1.34,18.12c1.18,6.93,2.49,7.13,2.63,7.13s1.43-.2,2.61-6.95a116.62,116.62,0,0,0,1.36-17.73.42.42,0,0,1,.41-.42,46.94,46.94,0,0,0,23.69-7.16.42.42,0,0,1,.53.06,111.65,111.65,0,0,0,12.67,11.6c5.26,4,6.31,3.24,6.41,3.14.45-.41,0-2.34-2.52-6.39a108.39,108.39,0,0,0-10.21-13.11.41.41,0,0,1,0-.59,46.89,46.89,0,0,0,15-30.36.43.43,0,0,1,.41-.38,110.9,110.9,0,0,0,17-1.41c6.43-1.16,6.61-2.4,6.61-2.54s-.18-1.39-6.62-2.55a111.18,111.18,0,0,0-17-1.4.43.43,0,0,1-.41-.38,46.56,46.56,0,0,0-12.38-27.59.41.41,0,0,1,0-.59l.92-.87a122.58,122.58,0,0,0,12.72-13.94c4.42-5.89,3.64-7,3.54-7.12s-1.19-.93-7.27,3.23a122.3,122.3,0,0,0-14.48,12.08l-1.41,1.37a.41.41,0,0,1-.54,0,46.78,46.78,0,0,0-27.09-9.19.42.42,0,0,1-.41-.41,112.23,112.23,0,0,0-1.4-17.2C76.16,1,74.9.84,74.76.84s-1.42.19-2.6,6.9A115.34,115.34,0,0,0,70.8,25.38a.44.44,0,0,1-.35.41,46.77,46.77,0,0,0-24.32,12,.38.38,0,0,1-.3.11.39.39,0,0,1-.3-.14c-.9-1-1.84-2.06-2.78-3.07A122.78,122.78,0,0,0,29,21.8c-5.82-4.52-7-3.75-7.06-3.65s-1,1.17,3.11,7.31A122,122,0,0,0,36.93,40.13c1.13,1.22,2.28,2.42,3.43,3.58a.43.43,0,0,1,0,.55,46.92,46.92,0,0,0-9,23.5.41.41,0,0,1-.42.38c-1.28,0-2.58,0-3.87,0A121.65,121.65,0,0,0,8.31,69.38C1.05,70.57.84,71.92.84,72.07s.21,1.5,7.47,2.69A121.77,121.77,0,0,0,27.13,76c1.28,0,2.57,0,3.84,0h0a.42.42,0,0,1,.42.38,47,47,0,0,0,7.82,22.06.41.41,0,0,1-.06.53l-.16.16a121.73,121.73,0,0,0-12.72,13.93c-4.42,5.89-3.64,7-3.54,7.12s1.18.92,7.14-3.14a121.28,121.28,0,0,0,14.28-11.85A.4.4,0,0,1,44.45,105.07Z"/><path d="M96.49,92.54c-2,3.41-4.77,5-11.83,5-13.44-.12-17.91-3-19.17-6.51-.81-2.24,1.21-5.48,4.21-6.17a9.22,9.22,0,0,1,2-.22h20C96.23,84.6,98.19,89.7,96.49,92.54Z"/><path class="cls-1" d="M79,84.6c0,1.17-.32,2.79-2.69,2.67-1.67-.09-1.77-1.6-1.74-2.67Z"/><path class="cls-1" d="M87.51,84.6c-.15,1-.77,2-2.65,1.9A1.9,1.9,0,0,1,83,84.6Z"/><path class="cls-1" d="M99.38,79.55a8.15,8.15,0,0,1-8.14-8.14V54.94a8.14,8.14,0,0,1,16.28,0V71.41A8.15,8.15,0,0,1,99.38,79.55Z"/><path class="cls-3" d="M99.39,134.4h-.08a3.48,3.48,0,0,1-3.4-3.57c0-.16.36-16.13-1.33-27.9-.55-3.87-1.91-6.52-3.93-7.64a4.88,4.88,0,0,0-2.29-.63,3.49,3.49,0,0,1-.8-6.93A11.53,11.53,0,0,1,94,89.19c2.79,1.56,6.35,5,7.45,12.75,1.76,12.35,1.4,28.38,1.39,29.06A3.49,3.49,0,0,1,99.39,134.4Z"/><path class="cls-4" d="M95.71,135.37h-.08a3.5,3.5,0,0,1-3.41-3.57c0-.16.36-16.13-1.32-27.9C90.35,100,89,97.38,87,96.25a4.93,4.93,0,0,0-2.29-.62,3.49,3.49,0,0,1-.8-6.93,11.53,11.53,0,0,1,6.48,1.46c2.79,1.56,6.34,5,7.45,12.75,1.76,12.35,1.4,28.38,1.39,29.06A3.49,3.49,0,0,1,95.71,135.37Z"/><path class="cls-5" d="M90.87,135.56h-.08A3.49,3.49,0,0,1,87.38,132c0-.16.36-16.13-1.32-27.9-.55-3.87-1.91-6.51-3.94-7.64a4.63,4.63,0,0,0-2.28-.62A3.49,3.49,0,1,1,79,88.9a11.45,11.45,0,0,1,6.48,1.46c2.79,1.55,6.34,5,7.44,12.74,1.77,12.35,1.41,28.38,1.39,29.06A3.47,3.47,0,0,1,90.87,135.56Z"/><path class="cls-6" d="M84.86,135.56h-.08a3.47,3.47,0,0,1-3.4-3.57c0-.16.36-16.13-1.33-27.9-.55-3.87-1.91-6.51-3.93-7.64a4.66,4.66,0,0,0-2.29-.62A3.49,3.49,0,0,1,73,88.9a11.44,11.44,0,0,1,6.48,1.46c2.79,1.55,6.35,5,7.45,12.74,1.76,12.35,1.4,28.38,1.39,29.06A3.49,3.49,0,0,1,84.86,135.56Z"/><path d="M58.5,83a8.13,8.13,0,0,1-8.13-8.13V58.41a8.14,8.14,0,1,1,16.27,0V74.88A8.13,8.13,0,0,1,58.5,83Z"/><rect x="94.24" y="50.95" width="10.28" height="24.46" rx="5.14"/><path class="cls-1" d="M58.5,79.55a8.14,8.14,0,0,1-8.13-8.14V54.94a8.14,8.14,0,0,1,16.27,0V71.41A8.14,8.14,0,0,1,58.5,79.55Z"/><path d="M58.5,75.4h0a5.14,5.14,0,0,1-5.14-5.14V56.09A5.14,5.14,0,0,1,58.5,51h0a5.14,5.14,0,0,1,5.14,5.14V70.26A5.14,5.14,0,0,1,58.5,75.4Z"/><path d="M90.87,136h-.1a3.85,3.85,0,0,1-2.9-1.41A3.91,3.91,0,0,1,81,132c0-.16.36-16.09-1.32-27.83-.53-3.74-1.82-6.27-3.73-7.34a4.54,4.54,0,0,0-2-.57A3.9,3.9,0,0,1,73,88.48a11.26,11.26,0,0,1,4.46.53A3.81,3.81,0,0,1,79,88.48a11.08,11.08,0,0,1,3.43.25,4.14,4.14,0,0,1,1.41-.44,9.14,9.14,0,0,1,1.55,0,3.84,3.84,0,0,1,2.13-1,11.88,11.88,0,0,1,6.74,1.51c2.87,1.6,6.53,5.16,7.65,13,1.77,12.39,1.41,28.45,1.4,29.13a3.93,3.93,0,0,1-3.91,3.81H99.3a3.67,3.67,0,0,1-.88-.13,3.89,3.89,0,0,1-5,.35A3.87,3.87,0,0,1,90.87,136Zm-3-2.55a.42.42,0,0,1,.36.2,3,3,0,0,0,2.57,1.51h.07a3,3,0,0,0,2.22-.95.42.42,0,0,1,.58,0,3,3,0,0,0,2,.78h.07a3.08,3.08,0,0,0,2.27-1,.41.41,0,0,1,.44-.11,3.39,3.39,0,0,0,.9.15h.07a3.08,3.08,0,0,0,3.07-3c0-.68.37-16.67-1.39-29-1.07-7.55-4.52-10.93-7.23-12.44a11,11,0,0,0-6.23-1.41,3,3,0,0,0-1.78.85.45.45,0,0,1-.33.12,8.9,8.9,0,0,0-1.57,0,3,3,0,0,0-1.23.42.47.47,0,0,1-.31,0,10.59,10.59,0,0,0-3.31-.28,3.16,3.16,0,0,0-1.35.5.4.4,0,0,1-.37,0,10.79,10.79,0,0,0-4.28-.55,3.07,3.07,0,1,0,.71,6.1h0a5.13,5.13,0,0,1,2.52.67c2.14,1.2,3.58,4,4.15,8,1.68,11.81,1.33,27.81,1.32,28a3.08,3.08,0,0,0,3,3.14h.07a3.1,3.1,0,0,0,2.65-1.51A.4.4,0,0,1,87.87,133.43Z"/><path d="M99.25,134.82h0a.42.42,0,0,1-.39-.44c.77-13.33.23-24-1.61-31.76-1.36-5.75-3.4-9.8-6.07-12S86,88.8,86,88.81a.42.42,0,0,1-.5-.31.43.43,0,0,1,.31-.51c.12,0,2.85-.63,5.92,2,4.59,3.85,9.69,14.69,8,44.49A.42.42,0,0,1,99.25,134.82Z"/><path d="M94.11,134.7h0a.43.43,0,0,1-.39-.45c1-12,.68-22-.85-29.49C91.7,99.18,89.91,95,87.5,92.33s-4.61-2.79-4.63-2.79a.43.43,0,0,1-.41-.43.42.42,0,0,1,.43-.41c.1,0,2.55.09,5.23,3.07,4.11,4.56,8.56,15.65,6.41,42.55A.42.42,0,0,1,94.11,134.7Z"/><path d="M87.66,134.82H87.6a.42.42,0,0,1-.36-.47c2.82-21.33,0-32.3-2.91-37.75-3.09-5.84-6.88-6.71-6.91-6.72a.41.41,0,1,1,.17-.81c.16,0,4.14.91,7.42,7a38.07,38.07,0,0,1,3.8,13.64,104.27,104.27,0,0,1-.74,24.72A.4.4,0,0,1,87.66,134.82Z"/><path d="M99.38,80a8.57,8.57,0,0,1-8.56-8.56V54.94a8.56,8.56,0,0,1,17.11,0V71.41A8.56,8.56,0,0,1,99.38,80Zm0-32.74a7.72,7.72,0,0,0-7.72,7.71V71.41a7.72,7.72,0,0,0,15.44,0V54.94A7.72,7.72,0,0,0,99.38,47.23Z"/><path d="M58.63,80.44a8.56,8.56,0,0,1-8.55-8.55V55.42a8.56,8.56,0,0,1,17.11,0V71.89A8.56,8.56,0,0,1,58.63,80.44Zm0-32.74a7.73,7.73,0,0,0-7.71,7.72V71.89a7.72,7.72,0,1,0,15.43,0V55.42A7.73,7.73,0,0,0,58.63,47.7Z"/><path d="M62.71,43.56l-10-.17a.43.43,0,0,1-.42-.43.42.42,0,0,1,.42-.41l10,.17a.43.43,0,0,1,.41.43A.41.41,0,0,1,62.71,43.56Z"/><path d="M95,42.27a.42.42,0,1,1,0-.83l10-.24a.42.42,0,0,1,.43.41A.43.43,0,0,1,105,42l-10,.23Z"/><g class="cls-7"><path class="cls-1" d="M40.7,67.79h0a1.37,1.37,0,0,1-1.33-1.41,48.27,48.27,0,0,1,.54-6.21,1.37,1.37,0,1,1,2.71.42,48.36,48.36,0,0,0-.51,5.86A1.37,1.37,0,0,1,40.7,67.79Z"/></g><path d="M72.59,96s3,.56,4.61,5.32c2.09,6.4,3.17,18,3.17,18l.76.25S82.61,93.77,72.59,96Z"/><g class="cls-7"><path class="cls-1" d="M41.87,58.4a1.1,1.1,0,0,1-.31,0,1.38,1.38,0,0,1-1-1.65c1.9-8.07,5.31-12.16,5.45-12.33a1.37,1.37,0,0,1,2.1,1.77c0,.06-3.15,3.84-4.87,11.19A1.38,1.38,0,0,1,41.87,58.4Z"/></g></g></g></svg>