<svg xmlns="http://www.w3.org/2000/svg" viewBox="0 0 597.65 345.42"><defs><style>.cls-1{fill:#fff;}.cls-2{fill:#6feefc;}.cls-3{fill:#ef5aff;}.cls-4{fill:#efe555;}.cls-5{fill:#8500ff;}</style></defs><g id="Capa_2" data-name="Capa 2"><g id="_Layer_" data-name="&lt;Layer&gt;"><path class="cls-1" d="M55.18,171.16a28.32,28.32,0,0,0,9.48-2.82c8.78-4.42,14.48-13.05,16.73-23.63C94.29,171.1,112,203.42,134,234.24c25.35,35.56,52,63,79.17,81.66,33.65,23.07,68.37,32.69,103.2,28.6,36.81-4.32,71-21.95,101.63-52.42,24.77-24.65,47.36-57.81,67.13-98.57,18.43-38,31.45-76.56,40-106.49,4.64,9.64,12.14,16.62,21.62,18.86a28.38,28.38,0,0,0,9.88.55c17.17-2,33.55-19.06,39.11-42.54,6.62-28-4.59-54.67-25-59.49-10.06-2.38-20.73.8-30,9a54,54,0,0,0-7.18,7.72c-12.32-11.68-44-16.86-71.26-19.14C416-1.94,355.37,0,291.54,7.53S168.27,27.12,124.15,41.61c-29.06,9.55-62.8,23.94-67.32,40.31a53.85,53.85,0,0,0-7.71-5c-11-5.78-22.07-6.41-31.31-1.76-18.72,9.41-23.44,38-10.53,63.65C18.12,160.38,38,173.18,55.18,171.16Z"/><ellipse class="cls-2" cx="41.23" cy="121.75" rx="35.11" ry="49.25" transform="translate(-50.3 31.5) rotate(-26.69)"/><path d="M55.18,171.16c-17.18,2-37-10.78-47.9-32.34C-5.63,113.14-.91,84.58,17.81,75.17c9.24-4.65,20.35-4,31.31,1.76C59.75,82.54,69,92.39,75.18,104.68c12.92,25.69,8.2,54.24-10.52,63.66A28.32,28.32,0,0,1,55.18,171.16ZM12.45,136.23c11.48,22.83,33.74,34.93,49.61,26.94s19.44-33,8-55.89C64.38,96.06,56,87.09,46.42,82c-9.25-4.88-18.49-5.49-26-1.71-15.88,8-19.44,33.06-8,55.9Z"/><path d="M60.52,148.47a3.14,3.14,0,0,1-.75,0,2.9,2.9,0,0,1-2.45-3.28c4.5-31.46-24.79-47.15-26-47.8A2.89,2.89,0,0,1,34,92.26a63.88,63.88,0,0,1,16.43,13.3C60.77,117.28,65.15,131.26,63,146A2.87,2.87,0,0,1,60.52,148.47Z"/><path d="M55.94,122a2.91,2.91,0,0,1-2-.49c-15.44-10.62-28.66-5.06-29.21-4.82a2.89,2.89,0,0,1-2.35-5.28c.67-.3,16.62-7.18,34.84,5.34a2.89,2.89,0,0,1-1.3,5.25Z"/><ellipse class="cls-2" cx="558.77" cy="55.14" rx="49.25" ry="35.11" transform="translate(376.46 586.2) rotate(-76.69)"/><path d="M556.64,106.43a28.38,28.38,0,0,1-9.88-.55c-20.39-4.82-31.59-31.51-25-59.49,3.16-13.38,9.89-25.11,18.93-33,9.32-8.16,20-11.34,30-9,20.39,4.82,31.6,31.51,25,59.49C590.19,87.37,573.81,104.42,556.64,106.43Zm4.81-96.85c-5.75.67-11.56,3.44-16.92,8.13-8.15,7.13-14.22,17.79-17.12,30-5.88,24.88,3.4,48.44,20.68,52.53s36.15-12.82,42-37.69S586.73,14.11,569.44,10A22.81,22.81,0,0,0,561.45,9.58Z"/><path class="cls-2" d="M59.28,86.79S158.11,360.16,316,341.63C483.59,322,535.85,30.88,535.85,30.88Z"/><path d="M316.35,344.5c-34.83,4.09-69.55-5.53-103.2-28.6C186,297.28,159.33,269.8,134,234.24,89.59,172,62.53,103.53,57.56,90.44a5.07,5.07,0,0,1,4.16-6.84L532.54,28.36a5.07,5.07,0,0,1,5.58,6c-2.77,14-18.33,87.64-53,159.13-19.77,40.76-42.36,73.92-67.13,98.57C387.35,322.55,353.16,340.18,316.35,344.5ZM63.28,89.23c11.94,31.15,107.18,266.57,252.4,249.53,154.17-18.09,209.86-271,216.58-304.55Z"/><path class="cls-3" d="M535.85,30.88a12.43,12.43,0,0,1-2.09,8,24.45,24.45,0,0,1-3.31,4.23A58.21,58.21,0,0,1,519.24,52a156,156,0,0,1-21.7,11.09c-7.29,3.12-15.49,6.23-24.51,9.25-42.27,14.23-102.42,27.05-169.78,35-66.13,7.75-126.61,9.3-170.82,5.52-8.94-.76-17.22-1.75-24.75-2.93A173.28,173.28,0,0,1,82,104.05a61.28,61.28,0,0,1-14.67-6.57c-.84-.55-1.62-1.11-2.33-1.68-3.4-2.73-5.37-5.74-5.75-9-3.14-26.74,101-60.95,232.6-76.39S532.71,4.13,535.85,30.88Z"/><path class="cls-4" d="M530.45,43.14A58.21,58.21,0,0,1,519.24,52a156,156,0,0,1-21.7,11.09c-7.29,3.12-15.49,6.23-24.51,9.25-42.27,14.23-102.42,27.05-169.78,35-66.13,7.75-126.61,9.3-170.82,5.52-8.94-.76-17.22-1.75-24.75-2.93A173.28,173.28,0,0,1,82,104.05a61.28,61.28,0,0,1-14.67-6.57c22.87-24.17,115.08-51,227.22-64.11S502.59,24.92,530.45,43.14Z"/><path class="cls-5" d="M519.24,52a156,156,0,0,1-21.7,11.09c-7.29,3.12-15.49,6.23-24.51,9.25-42.27,14.23-102.42,27.05-169.78,35-66.13,7.75-126.61,9.3-170.82,5.52-8.94-.76-17.22-1.75-24.75-2.93A173.28,173.28,0,0,1,82,104.05c34.18-21.6,117.39-43.72,216-55.29C395.19,37.36,480.16,39.37,519.24,52Z"/><path class="cls-3" d="M473,72.31c-11.43,3.85-24.17,7.59-38,11.16-37.32,9.65-82.63,18-131.77,23.8s-94.93,8.09-133.41,7.37c-13.44-.25-26-.87-37.41-1.85,31.92-15.5,95.14-30.88,168.79-39.53C373.8,64.75,438,65,473,72.31Z"/><path d="M435,83.47c-37.32,9.65-82.63,18-131.77,23.8s-94.93,8.09-133.41,7.37C204,104.33,250.16,95.05,301.41,89,352.51,83,399.48,81.37,435,83.47Z"/><path d="M381.49,238.51c2.57,21.93-35.62,8.1-74.13,12.62S244.58,276.8,242,254.87c-1.08-9.21,3.42-18.32,11.86-26.15a62.75,62.75,0,0,1,7.93-6.19,80.06,80.06,0,0,1,8.49-4.91c1.2-.61,2.44-1.2,3.71-1.75.71-.33,1.42-.64,2.14-.94s1.37-.58,2.08-.85a108,108,0,0,1,12.41-4l1.49-.38.44-.11c.82-.19,1.64-.39,2.47-.56q5.85-1.29,12.06-2l1.76-.19,1.12-.11c.8-.08,1.58-.14,2.37-.2,1.85-.14,3.68-.23,5.49-.28,2.51-.07,5-.07,7.43,0,.56,0,1.13,0,1.68.07,2.83.13,5.6.37,8.29.71q3.54.45,6.89,1.12c.75.15,1.51.3,2.25.47a75.2,75.2,0,0,1,16.38,5.6C372.55,219.91,380.3,228.37,381.49,238.51Z"/><path d="M303.58,110.14c-64.19,7.53-125.06,9.49-171.39,5.53-9-.77-17.38-1.76-25-3C74.9,107.58,57.8,99,56.41,87.13c-2.17-18.52,35.64-35,67.74-45.52C168.27,27.12,227.71,15,291.54,7.53S416-1.94,462.28,1.94C496,4.77,536.54,12,538.72,30.54c1.33,11.37-12.14,23.2-40,35.18C491.28,68.89,483,72,474,75.05,429.57,90,369.06,102.45,303.58,110.14ZM292.22,13.27C228.76,20.72,169.71,32.73,126,47.1,84.7,60.65,60.85,75.36,62.15,86.45c1,8.59,17.77,16.08,46,20.55,7.44,1.18,15.7,2.16,24.54,2.91,46,3.93,106.41,2,170.23-5.52,65.09-7.63,125.18-20,169.2-34.82,8.86-3,17-6,24.29-9.16,24.2-10.39,37.53-21,36.58-29.2-1.31-11.09-27.92-19.88-71.19-23.51C415.9,3.85,355.68,5.83,292.22,13.27Z"/><path d="M278.85,181.48c-12.25,1.44-26.45,1-32.18-7.29a10.66,10.66,0,0,1-1.54-8.81c3.42-14.15,32.32-29.92,35.61-31.67a2.89,2.89,0,1,1,2.72,5.1c-8.29,4.42-30.33,18.06-32.71,27.93a4.84,4.84,0,0,0,.66,4.15c6.78,9.77,35.63,4,46.17.94a2.89,2.89,0,0,1,1.61,5.56A136.75,136.75,0,0,1,278.85,181.48Z"/><path d="M546.19,85.6a2.89,2.89,0,0,1-3-1.81c-5.47-13.86-4.45-28.48,3-42.28A63.25,63.25,0,0,1,559,24.77a2.89,2.89,0,0,1,3.78,4.37c-1.08.94-25.92,23-14.26,52.53a2.9,2.9,0,0,1-1.63,3.75A3.12,3.12,0,0,1,546.19,85.6Z"/><path d="M544.52,58.79a2.82,2.82,0,0,1-2.27-.73A2.88,2.88,0,0,1,542,54C556.86,37.59,574,40.59,574.69,40.73a2.89,2.89,0,1,1-1.06,5.68c-.62-.11-14.74-2.44-27.3,11.45A2.9,2.9,0,0,1,544.52,58.79Z"/><path class="cls-1" d="M271.7,223.4a22.69,22.69,0,0,1-.51,8.34c-1.17,4.31-3.69,7.38-6.93,7.75-4.42.52-8.69-4.11-10.39-10.77a62.75,62.75,0,0,1,7.93-6.19,80.06,80.06,0,0,1,8.49-4.91A23.75,23.75,0,0,1,271.7,223.4Z"/><path class="cls-1" d="M292.56,217a23.91,23.91,0,0,1,0,5.74c-.72,5.65-3.57,9.9-7.42,10.35-2.71.32-5.35-1.29-7.38-4.11a21.09,21.09,0,0,1-3.59-9.82,23.52,23.52,0,0,1-.15-3.32c.71-.33,1.42-.64,2.14-.94s1.37-.58,2.08-.85a108,108,0,0,1,12.41-4A22.73,22.73,0,0,1,292.56,217Z"/><path class="cls-1" d="M336,210.94a23.38,23.38,0,0,1,.08,4.86c-.52,6.08-3.46,10.76-7.52,11.24-3.85.45-7.61-3-9.62-8.35a23.46,23.46,0,0,1-1.34-5.59,22.9,22.9,0,0,1,.2-6.91c2.51-.07,5-.07,7.43,0,.56,0,1.13,0,1.68.07,2.83.13,5.6.37,8.29.71A23.41,23.41,0,0,1,336,210.94Z"/><path class="cls-1" d="M313.53,211.62a22.92,22.92,0,0,1-.37,7.75c-1.09,4.63-3.69,7.95-7.08,8.34s-6.68-2.23-8.81-6.47a23.07,23.07,0,0,1-2.15-7.46A24.82,24.82,0,0,1,295,209q5.85-1.29,12.06-2l1.76-.19,1.12-.11c.8-.08,1.58-.14,2.37-.2A24,24,0,0,1,313.53,211.62Z"/><path class="cls-1" d="M360.75,214.18c-.08,6.88-3.18,12.4-7.6,12.92-4.06.48-8-3.4-9.92-9.19a23.88,23.88,0,0,1-1.12-9.59c0-.07,0-.14,0-.21.75.15,1.51.3,2.25.47A75.2,75.2,0,0,1,360.75,214.18Z"/><path d="M339,298.94a2.9,2.9,0,0,1-2-.53c-23.33-16.84-41.74,1.83-42.51,2.63a2.89,2.89,0,0,1-4.18-4c.22-.23,22.6-23.16,50.07-3.33a2.89,2.89,0,0,1-1.35,5.22Z"/></g></g></svg>