<svg xmlns="http://www.w3.org/2000/svg" viewBox="0 0 669.19 647.53"><defs><style>.cls-1{fill:#fff;}.cls-2{fill:#efe555;}.cls-3{fill:#8500ff;}.cls-4{fill:#ef5aff;}.cls-5{fill:#76ff99;}.cls-6{fill:#6feefc;}.cls-7{opacity:0.79;}</style></defs><g id="Capa_2" data-name="Capa 2"><g id="_Layer_" data-name="&lt;Layer&gt;"><path class="cls-1" d="M543.7,233.71A213.34,213.34,0,0,0,506.85,178l2.81-2.66C532.73,153.21,553,131,566.78,112.65c6.75-9,11.57-16.54,14.35-22.49,3.22-6.91,3.6-11.51,1.15-14.07s-7.06-2.38-14.1.53c-6.07,2.52-13.84,7-23.1,13.34-18.91,13-42,32.24-65.1,54.31-1.71,1.64-3.45,3.32-5.18,5A212,212,0,0,0,354.88,108.5c-.5-28.93-2.71-55.7-6.26-75.53-1.79-10-3.85-17.91-6.13-23.42-2.65-6.43-5.59-9.55-9-9.55s-6.39,3.21-9.08,9.82c-2.3,5.67-4.38,13.77-6.18,24.08-3.59,20.51-5.76,48.06-6.14,77.72A212.37,212.37,0,0,0,204.67,164.7c-3.66-4.13-7.42-8.27-11.21-12.35-21.72-23.4-43.66-44-61.77-58.06-8.87-6.88-16.36-11.82-22.27-14.69-6.86-3.32-11.45-3.77-14-1.36s-2.49,7,.32,14.11c2.42,6.11,6.79,14,13,23.3,12.66,19.1,31.6,42.5,53.33,65.91,4.7,5.06,9.5,10.09,14.28,14.95a213,213,0,0,0-39.65,103.71c-5.18-.11-10.42-.17-15.59-.17-31.93,0-62,2.05-84.58,5.77-11.07,1.82-19.79,3.95-25.91,6.33C3.45,314.91,0,318,0,321.52s3.45,6.6,10.56,9.36c6.12,2.38,14.84,4.51,25.91,6.33,22.61,3.72,52.65,5.77,84.58,5.77,5.14,0,10.34-.06,15.48-.16A213.49,213.49,0,0,0,171,439.92c-22.9,21.95-43,44-56.71,62.25-6.74,9-11.57,16.53-14.35,22.49-3.22,6.9-3.6,11.5-1.15,14.06s7,2.39,13.91-.45c6-2.44,13.61-6.83,22.73-13,18.2-12.39,40.46-30.83,62.84-52A213,213,0,0,0,314,532.77c.26,30.34,2.38,58.64,6,79.83,1.81,10.62,3.91,19,6.24,24.82,2.72,6.8,5.73,10.11,9.2,10.11s6.4-3.23,9.09-9.87c2.31-5.71,4.4-13.86,6.2-24.23,3.58-20.6,5.75-48.2,6.11-77.92,1.3,0,2.6-.1,3.9-.17.94,29.71.42,53.06.41,53.47A17.4,17.4,0,0,0,391,601.46h.11a1.86,1.86,0,0,0,1.37-.61A17.3,17.3,0,0,0,405,606.64h.43a17.23,17.23,0,0,0,11.34-4.22,17.37,17.37,0,0,0,22.33-1.52,17,17,0,0,0,3.32.51l.29.05h.1l.19,0h.46a17.52,17.52,0,0,0,17.41-17c.05-2.14.87-38.66-1.46-79.41.67-.4,1.34-.8,2-1.21,20.06,20.86,39.89,38.95,56,51,8.11,6.1,14.95,10.44,20.34,12.91,6.3,2.88,10.56,3.17,13,.88s2.5-6.41.22-12.7c-1.95-5.38-5.59-12.3-10.84-20.57-10.31-16.25-26.15-36.65-44.72-57.6a212.94,212.94,0,0,0,66.42-134.93c28.72-.53,55.24-2.77,74.85-6.31,9.91-1.79,17.7-3.84,23.14-6.1,6.35-2.65,9.44-5.57,9.44-8.92s-3.09-6.28-9.45-8.92c-5.44-2.27-13.24-4.32-23.17-6.12-19.62-3.54-46.17-5.77-74.92-6.3A212,212,0,0,0,543.7,233.71Z"/><circle class="cls-2" cx="349.15" cy="322.04" r="211.75"/><ellipse class="cls-2" cx="333.53" cy="121.05" rx="19.6" ry="119.19"/><ellipse class="cls-2" cx="335.46" cy="526.48" rx="19.6" ry="119.19"/><ellipse class="cls-2" cx="548.13" cy="321.52" rx="119.19" ry="19.6"/><ellipse class="cls-2" cx="121.05" cy="321.52" rx="119.19" ry="19.6"/><ellipse class="cls-2" cx="468.32" cy="479.94" rx="19.6" ry="119.19" transform="translate(-201.43 446.86) rotate(-42.87)"/><ellipse class="cls-2" cx="177.74" cy="166.95" rx="19.6" ry="119.19" transform="translate(-66.11 165.53) rotate(-42.87)"/><ellipse class="cls-2" cx="186.24" cy="455.04" rx="119.19" ry="19.6" transform="translate(-262.91 255.01) rotate(-43.74)"/><ellipse class="cls-2" cx="494.82" cy="159.78" rx="119.19" ry="19.6" transform="translate(26.83 386.41) rotate(-43.74)"/><path d="M335.46,647.53c-3.47,0-6.48-3.31-9.2-10.11-2.33-5.85-4.43-14.2-6.24-24.82-3.62-21.19-5.74-49.49-6-79.83a213,213,0,0,1-115.77-59.54c-22.38,21.18-44.64,39.62-62.84,52-9.12,6.2-16.76,10.59-22.73,13-6.93,2.84-11.48,3-13.91.45s-2.07-7.16,1.15-14.06c2.78-6,7.61-13.52,14.35-22.49C128,484,148.08,461.87,171,439.93a213.57,213.57,0,0,1-34.45-97.11c-5.14.1-10.34.16-15.48.16-31.93,0-62-2.05-84.58-5.77-11.07-1.82-19.79-3.95-25.91-6.33C3.45,328.12,0,325.06,0,321.52s3.45-6.61,10.56-9.37c6.12-2.38,14.84-4.51,25.91-6.33,22.61-3.72,52.65-5.77,84.58-5.77,5.17,0,10.41.06,15.59.17a213,213,0,0,1,39.65-103.71c-4.78-4.86-9.58-9.89-14.28-14.95-21.73-23.41-40.67-46.81-53.33-65.91-6.2-9.35-10.57-17.19-13-23.3-2.81-7.08-2.91-11.7-.32-14.11s7.19-2,14,1.36c5.91,2.87,13.4,7.81,22.27,14.69,18.11,14,40.05,34.66,61.77,58.06,3.79,4.08,7.55,8.22,11.21,12.35a212.37,212.37,0,0,1,107.46-53.08c.38-29.66,2.55-57.21,6.14-77.72,1.8-10.31,3.88-18.41,6.18-24.08C327.14,3.21,330.11,0,333.53,0s6.31,3.12,9,9.55c2.28,5.51,4.34,13.39,6.13,23.42,3.55,19.83,5.76,46.6,6.26,75.53A212,212,0,0,1,474.8,149.28c1.73-1.69,3.47-3.37,5.18-5,23.07-22.07,46.19-41.36,65.1-54.3,9.26-6.34,17-10.83,23.1-13.35,7-2.91,11.65-3.09,14.1-.53s2.07,7.16-1.15,14.07c-2.78,6-7.6,13.52-14.35,22.49-13.76,18.32-34,40.56-57.12,62.64L506.85,178a212.77,212.77,0,0,1,54.8,122.23c28.75.53,55.3,2.76,74.92,6.3,9.93,1.8,17.73,3.85,23.17,6.12,6.36,2.64,9.45,5.56,9.45,8.92s-3.09,6.27-9.44,8.92c-5.44,2.26-13.23,4.31-23.14,6.1-19.61,3.54-46.13,5.78-74.85,6.31a212.94,212.94,0,0,1-66.42,134.93c18.57,21,34.41,41.35,44.72,57.6,5.25,8.27,8.89,15.19,10.84,20.57,2.28,6.29,2.21,10.45-.22,12.7s-6.72,2-13-.88c-5.39-2.47-12.23-6.81-20.34-12.91-16.06-12.08-35.89-30.17-56-51a213.24,213.24,0,0,1-104.51,31.68c-.36,29.72-2.53,57.32-6.11,77.92-1.8,10.37-3.89,18.52-6.2,24.23C341.86,644.3,338.89,647.53,335.46,647.53ZM198.29,468.75a1.88,1.88,0,0,1,1.33.56,208.07,208.07,0,0,0,116.55,60,1.87,1.87,0,0,1,1.57,1.83c.2,30.74,2.31,59.44,6,80.81,5.27,30.93,11.11,31.82,11.76,31.82s6.37-.87,11.62-31c3.62-20.82,5.77-48.91,6.07-79.1a1.86,1.86,0,0,1,1.81-1.85,209.56,209.56,0,0,0,105.72-32,1.87,1.87,0,0,1,2.34.28c20.27,21.18,40.36,39.55,56.55,51.73,23.46,17.64,28.12,14.46,28.58,14,2-1.85.24-10.43-11.24-28.53-10.43-16.43-26.61-37.2-45.56-58.48a1.87,1.87,0,0,1,.12-2.61A209.22,209.22,0,0,0,558.2,340.85a1.86,1.86,0,0,1,1.83-1.7c29.16-.47,56.12-2.7,75.91-6.28,28.69-5.17,29.52-10.74,29.52-11.35s-.83-6.18-29.55-11.36c-19.81-3.58-46.79-5.81-76-6.28a1.86,1.86,0,0,1-1.83-1.69,207.69,207.69,0,0,0-55.23-123.06,1.87,1.87,0,0,1,.08-2.63q2.06-1.94,4.13-3.91c22.93-21.94,43.07-44,56.72-62.18,19.73-26.26,16.25-31.25,15.79-31.74s-5.3-4.18-32.4,14.37c-18.75,12.84-41.7,32-64.63,53.93-2.07,2-4.19,4-6.28,6.08a1.87,1.87,0,0,1-2.41.17,208.41,208.41,0,0,0-120.86-41,1.85,1.85,0,0,1-1.83-1.83c-.43-29.43-2.64-56.68-6.23-76.73-5.19-29.06-10.8-29.9-11.42-29.9s-6.35.87-11.59,30.81c-3.61,20.68-5.78,48.62-6.1,78.68a1.87,1.87,0,0,1-1.56,1.82,208.78,208.78,0,0,0-108.47,53.69,1.92,1.92,0,0,1-1.36.5,1.86,1.86,0,0,1-1.31-.63c-4-4.57-8.21-9.18-12.41-13.71-21.59-23.26-43.37-43.73-61.33-57.65C103.45,77.11,98.4,80.52,97.91,81s-4.26,5.23,13.88,32.61c12.55,18.93,31.36,42.17,53,65.43,5,5.43,10.2,10.82,15.32,16a1.87,1.87,0,0,1,.18,2.42A209.07,209.07,0,0,0,140.19,302.3a1.86,1.86,0,0,1-1.91,1.69c-5.71-.13-11.51-.2-17.23-.2-31.73,0-61.56,2-84,5.71-32.41,5.33-33.35,11.35-33.35,12s.94,6.68,33.35,12c22.41,3.69,52.24,5.72,84,5.72,5.69,0,11.46-.07,17.14-.2h0a1.86,1.86,0,0,1,1.86,1.7A209.61,209.61,0,0,0,175,439.15a1.87,1.87,0,0,1-.25,2.39l-.72.68c-22.93,21.94-43.08,44-56.73,62.19-19.73,26.25-16.25,31.25-15.78,31.73s5.22,4.14,31.84-14c18.39-12.52,41-31.3,63.69-52.88A1.89,1.89,0,0,1,198.29,468.75Z"/><path d="M430.45,412.85c-9.11,15.2-21.25,22.4-52.78,22.12-59.93-.54-79.87-13.41-85.51-29-3.61-10,5.4-24.47,18.78-27.53a40.24,40.24,0,0,1,8.95-1h89.39C429.29,377.42,438.06,400.15,430.45,412.85Z"/><path class="cls-1" d="M352.59,377.42c.18,5.23-1.46,12.47-12,11.92-7.42-.39-7.9-7.15-7.75-11.9Z"/><path class="cls-1" d="M390.42,377.42c-.71,4.47-3.47,8.9-11.83,8.46-6.11-.32-8.1-4.38-8.53-8.46Z"/><path class="cls-3" d="M443.42,599.59H443a15.55,15.55,0,0,1-15.18-15.92c0-.72,1.6-72-5.9-124.48-2.47-17.27-8.54-29.06-17.56-34.1a21.6,21.6,0,0,0-10.18-2.78,15.55,15.55,0,1,1-3.6-30.9,51.18,51.18,0,0,1,28.93,6.51c12.44,6.94,28.29,22.43,33.21,56.87,7.87,55.09,6.28,126.6,6.21,129.62A15.56,15.56,0,0,1,443.42,599.59Z"/><path class="cls-4" d="M427,603.92h-.38A15.55,15.55,0,0,1,411.44,588c0-.71,1.6-72-5.9-124.48-2.47-17.27-8.54-29.06-17.57-34.1a21.33,21.33,0,0,0-10.17-2.77,15.56,15.56,0,0,1-3.6-30.91,51.18,51.18,0,0,1,28.93,6.51c12.44,6.94,28.29,22.44,33.21,56.87,7.87,55.1,6.28,126.6,6.2,129.62A15.56,15.56,0,0,1,427,603.92Z"/><path class="cls-5" d="M405.39,604.78H405a15.57,15.57,0,0,1-15.18-15.93c0-.71,1.6-72-5.9-124.48-2.46-17.27-8.54-29.06-17.56-34.09a21.6,21.6,0,0,0-10.18-2.78,15.56,15.56,0,0,1-3.6-30.91,51.15,51.15,0,0,1,28.94,6.52C394,410,409.82,425.54,414.73,460c7.88,55.1,6.28,126.61,6.21,129.62A15.56,15.56,0,0,1,405.39,604.78Z"/><path class="cls-6" d="M378.6,604.78h-.38A15.57,15.57,0,0,1,363,588.85c0-.71,1.6-72-5.9-124.48-2.47-17.27-8.54-29.06-17.57-34.09a21.55,21.55,0,0,0-10.17-2.78,15.56,15.56,0,0,1-3.6-30.91,51.14,51.14,0,0,1,28.93,6.52C367.17,410,383,425.54,387.94,460c7.87,55.1,6.28,126.61,6.2,129.62A15.55,15.55,0,0,1,378.6,604.78Z"/><path d="M405.39,606.65H405a17.26,17.26,0,0,1-13-6.3,17.41,17.41,0,0,1-30.82-11.53c0-.71,1.6-71.81-5.88-124.17-2.38-16.67-8.13-28-16.62-32.73a20.08,20.08,0,0,0-9.15-2.55,17.42,17.42,0,0,1-3.93-34.62,50.35,50.35,0,0,1,19.88,2.35,17.26,17.26,0,0,1,6.91-2.35,48.4,48.4,0,0,1,15.33,1.13,17,17,0,0,1,6.28-2,40,40,0,0,1,6.93-.09,17.3,17.3,0,0,1,9.49-4.24,53.14,53.14,0,0,1,30,6.74c12.81,7.14,29.12,23,34.15,58.23,7.89,55.25,6.29,126.91,6.22,129.93a17.52,17.52,0,0,1-17.41,17H443a18,18,0,0,1-3.94-.55,17.37,17.37,0,0,1-22.33,1.52A17.23,17.23,0,0,1,405.39,606.65ZM392,595.24a1.88,1.88,0,0,1,1.61.92,13.62,13.62,0,0,0,11.46,6.75h.33a13.57,13.57,0,0,0,9.89-4.25,1.86,1.86,0,0,1,2.59-.1,13.73,13.73,0,0,0,8.8,3.49H427a13.72,13.72,0,0,0,10.12-4.5,1.87,1.87,0,0,1,2-.52,13.6,13.6,0,0,0,4,.69h.33a13.78,13.78,0,0,0,13.68-13.37c.07-3,1.67-74.37-6.18-129.31-4.81-33.68-20.21-48.77-32.28-55.5a49.06,49.06,0,0,0-27.8-6.29,13.56,13.56,0,0,0-7.95,3.79,1.88,1.88,0,0,1-1.45.52,39.07,39.07,0,0,0-7,0,13.61,13.61,0,0,0-5.46,1.87,1.82,1.82,0,0,1-1.39.21,45.63,45.63,0,0,0-14.76-1.21,13.47,13.47,0,0,0-6,2.23,1.85,1.85,0,0,1-1.63.23A47.24,47.24,0,0,0,326,398.45a13.69,13.69,0,0,0,3.16,27.2h.08a23,23,0,0,1,11.22,3c9.56,5.33,16,17.59,18.51,35.46,7.52,52.66,5.93,124.07,5.91,124.79a13.71,13.71,0,0,0,13.37,14h.33a13.75,13.75,0,0,0,11.79-6.75A1.85,1.85,0,0,1,392,595.24Z"/><path d="M442.77,601.47h-.1a1.87,1.87,0,0,1-1.76-2c3.42-59.48,1-107.16-7.18-141.7-6.08-25.65-15.19-43.72-27.08-53.71-12.27-10.31-23-7.93-23.15-7.9a1.87,1.87,0,1,1-.86-3.63c.51-.12,12.72-2.82,26.41,8.68,20.46,17.18,43.23,65.56,35.59,198.47A1.87,1.87,0,0,1,442.77,601.47Z"/><path d="M419.85,600.94h-.15a1.86,1.86,0,0,1-1.71-2c4.3-53.75,3-98-3.82-131.54-5.07-24.9-13.08-43.56-23.8-55.46-10.91-12.11-20.58-12.48-20.67-12.48a1.87,1.87,0,1,1,.09-3.73c.46,0,11.38.42,23.35,13.72,18.33,20.34,38.17,69.78,28.57,189.79A1.86,1.86,0,0,1,419.85,600.94Z"/><path d="M391.07,601.47h-.25a1.87,1.87,0,0,1-1.6-2.1c12.54-95.17-.16-144.1-13-168.39-13.79-26.05-30.67-29.94-30.84-30a1.88,1.88,0,0,1-1.44-2.21,1.85,1.85,0,0,1,2.2-1.44c.75.15,18.48,4.08,33.12,31.39,8.47,15.8,14.17,36.28,16.93,60.85,3.45,30.58,2.35,67.67-3.26,110.26A1.87,1.87,0,0,1,391.07,601.47Z"/><path d="M262.06,370.34a36.3,36.3,0,0,1-36.3-36.3V260.58a36.3,36.3,0,0,1,72.6,0V334A36.3,36.3,0,0,1,262.06,370.34Z"/><path class="cls-1" d="M261.58,354.88a36.3,36.3,0,0,1-36.3-36.3V245.12a36.3,36.3,0,0,1,72.6,0v73.46A36.3,36.3,0,0,1,261.58,354.88Z"/><rect x="238.65" y="227.3" width="45.86" height="109.1" rx="22.93"/><path d="M261.58,356.75a38.22,38.22,0,0,1-38.17-38.17V245.12a38.17,38.17,0,0,1,76.34,0v73.46A38.22,38.22,0,0,1,261.58,356.75Zm0-146.07a34.47,34.47,0,0,0-34.43,34.44v73.46a34.43,34.43,0,0,0,68.86,0V245.12A34.47,34.47,0,0,0,261.58,210.68Z"/><path d="M442.14,370.34a36.3,36.3,0,0,1-36.3-36.3V292.2a36.3,36.3,0,0,1,72.6,0V334A36.3,36.3,0,0,1,442.14,370.34Z"/><path class="cls-1" d="M442.14,354.88a36.3,36.3,0,0,1-36.3-36.3V292.2a36.3,36.3,0,0,1,72.6,0v26.38A36.3,36.3,0,0,1,442.14,354.88Z"/><path d="M442.14,336.4h0a22.93,22.93,0,0,1-22.93-22.93V297.31a22.92,22.92,0,0,1,22.93-22.93h0a22.93,22.93,0,0,1,22.93,22.93v16.16A22.93,22.93,0,0,1,442.14,336.4Z"/><path d="M442.72,358.88a38.21,38.21,0,0,1-38.16-38.17V294.33a38.17,38.17,0,1,1,76.33,0v26.38A38.21,38.21,0,0,1,442.72,358.88Zm0-99a34.48,34.48,0,0,0-34.43,34.44v26.38a34.44,34.44,0,1,0,68.87,0V294.33A34.48,34.48,0,0,0,442.72,259.89Z"/><path d="M279.77,194.33l-44.5-.78a1.87,1.87,0,0,1,0-3.73l44.5.78a1.87,1.87,0,0,1,0,3.73Z"/><path d="M424,233a1.87,1.87,0,0,1,0-3.73l44.46-1.05a1.87,1.87,0,1,1,.09,3.73l-44.46,1Z"/><g class="cls-7"><path class="cls-1" d="M181.57,302.42h-.16a6.14,6.14,0,0,1-6-6.29,220.29,220.29,0,0,1,2.42-27.68A6.13,6.13,0,0,1,190,270.29a209.24,209.24,0,0,0-2.28,26.16A6.13,6.13,0,0,1,181.57,302.42Z"/></g><path d="M323.84,428.47s13.63,2.48,20.58,23.74c9.33,28.52,14.13,80.23,14.13,80.23l3.39,1.1S368.55,418.33,323.84,428.47Z"/><g class="cls-7"><path class="cls-1" d="M186.81,260.54a6.16,6.16,0,0,1-6-7.54c8.44-36,23.67-54.27,24.32-55a6.13,6.13,0,0,1,9.36,7.92c-.23.28-14.06,17.13-21.74,49.91A6.13,6.13,0,0,1,186.81,260.54Z"/></g></g></g></svg>