<svg xmlns="http://www.w3.org/2000/svg" viewBox="0 0 485.53 485.36"><defs><style>.cls-1{fill:#fff;}.cls-2{fill:#00ead3;}.cls-3{fill:#efe555;}</style></defs><g id="Capa_2" data-name="Capa 2"><g id="_Layer_" data-name="&lt;Layer&gt;"><path class="cls-1" d="M420.39,261.34l-.81-.37c48.37-21.41,75.47-70.43,61.21-114.45-7.48-23.1-25.08-41.38-49.56-51.46s-52.66-10.74-79.65-2a123.41,123.41,0,0,0-22.35,9.75C327.59,45.79,287.57,0,238.61,0c-50,0-90.68,47.75-90.68,106.44,0,1.78,0,3.54.12,5.29-25.46-11.8-53.31-14.57-78.5-7.77C44,110.85,24.21,126.74,13.85,148.7-3.7,185.93,10.71,231.23,46,260.06a109.06,109.06,0,0,0-29,27.77c-15.34,21.58-20.5,46.42-14.53,70,10.1,39.75,49.8,65.52,95.14,65.52a123.58,123.58,0,0,0,30.35-3.83,124.86,124.86,0,0,0,25.81-9.67c11.3,43.67,45.92,75.55,86.77,75.55,39.09,0,72.47-29.18,85.19-69.95a123.28,123.28,0,0,0,17.37,10,120.65,120.65,0,0,0,51.33,11.78,107.55,107.55,0,0,0,27.92-3.65c25.56-6.89,45.34-22.78,55.7-44.75s10-47.33-.92-71.44S446.05,273.44,420.39,261.34Z"/><ellipse class="cls-2" cx="238.61" cy="106.44" rx="88.71" ry="104.47"/><path d="M238.61,212.89c-50,0-90.68-47.75-90.68-106.45S188.61,0,238.61,0s90.68,47.75,90.68,106.44S288.61,212.89,238.61,212.89Zm0-208.95c-47.82,0-86.73,46-86.73,102.5s38.91,102.5,86.73,102.5,86.74-46,86.74-102.5S286.44,3.94,238.61,3.94Z"/><ellipse class="cls-2" cx="379.53" cy="179.33" rx="104.47" ry="88.71" transform="translate(-36.79 125.71) rotate(-17.95)"/><path d="M369.77,271.62c-42.18,0-79.57-22.68-91.5-59.49-15.41-47.56,17.48-101,73.31-119.07,27-8.74,55.28-8,79.65,2s42.08,28.36,49.56,51.46c15.41,47.57-17.47,101-73.31,119.07A122.51,122.51,0,0,1,369.77,271.62ZM389.46,90.93a119.09,119.09,0,0,0-36.66,5.89C299,114.23,267.28,165.42,282,210.92s70.48,68.34,124.24,50.92S491.78,193.23,477,147.73c-7.12-22-23.92-39.39-47.32-49A105.65,105.65,0,0,0,389.46,90.93Z"/><ellipse class="cls-2" cx="381.72" cy="343.36" rx="88.71" ry="104.47" transform="translate(-91.64 542.19) rotate(-64.76)"/><ellipse class="cls-2" cx="105.59" cy="331.59" rx="104.47" ry="88.7" transform="translate(-78.35 36.18) rotate(-14.25)"/><path d="M97.56,423.31c-45.34,0-85-25.77-95.14-65.52-6-23.54-.81-48.38,14.53-70s38.83-37.14,66.33-44.13c56.89-14.44,113.18,13.24,125.48,61.7,6,23.53.82,48.38-14.52,70s-38.83,37.15-66.33,44.13A123.58,123.58,0,0,1,97.56,423.31ZM83.76,245.62l.49,1.91c-26.59,6.75-49.35,21.88-64.08,42.59S.56,334.42,6.25,356.82c9.64,38,47.72,62.54,91.29,62.55a119.77,119.77,0,0,0,29.4-3.71c26.59-6.76,49.35-21.88,64.08-42.6s19.61-44.3,13.92-66.69C193.17,260,139,233.62,84.25,247.53Z"/><ellipse class="cls-2" cx="110.13" cy="194.1" rx="88.71" ry="104.47" transform="translate(-112.4 210.93) rotate(-64.76)"/><path d="M122.74,287.83a120.49,120.49,0,0,1-51.28-11.71c-53.09-25-78.93-82.19-57.61-127.42,10.36-22,30.14-37.85,55.7-44.74s53.59-4,79.25,8.12,45.8,32,56.69,56,11.27,49.48.92,71.44C191.85,270.37,159,287.83,122.74,287.83ZM97.47,104.25a103.5,103.5,0,0,0-26.89,3.51c-24.43,6.59-43.31,21.73-53.16,42.63C-3,193.64,22,248.45,73.14,272.55a116.65,116.65,0,0,0,49.64,11.34c34.77,0,66.17-16.62,80.06-46.08,9.85-20.9,9.52-45.09-.94-68.13s-30-42.33-54.78-54A116.72,116.72,0,0,0,97.47,104.25Z"/><path d="M144.69,190.08l-.36,0c-20.82-3.88-32.14-13.83-38-21.49-6.38-8.37-7.75-15.81-7.81-16.12a2,2,0,0,1,3.88-.7,38.29,38.29,0,0,0,7.2,14.6c7.76,10.1,20,17,35.42,19.83a2,2,0,0,1-.36,3.91Z"/><path d="M99.16,311c-2.17,0-4.23-.06-6.18-.15a122.91,122.91,0,0,1-26.7-4.14,2,2,0,0,1,1.13-3.78c.43.13,43.38,12.68,77-6.88a2,2,0,0,1,2.7.72,2,2,0,0,1-.71,2.69C130.54,308.68,112.85,311,99.16,311Z"/><path d="M394.38,437.15a120.78,120.78,0,0,1-51.33-11.77c-53.09-25-78.93-82.19-57.61-127.42,10.36-22,30.14-37.86,55.7-44.75s53.59-4,79.25,8.13,45.8,32,56.69,56,11.27,49.48.92,71.44-30.14,37.86-55.7,44.75A107.55,107.55,0,0,1,394.38,437.15ZM369.06,253.51A103.08,103.08,0,0,0,342.17,257c-24.43,6.59-43.31,21.72-53.16,42.62-20.4,43.26,4.6,98.06,55.72,122.17,24.82,11.7,52,14.5,76.54,7.88s43.3-21.72,53.16-42.62,9.52-45.09-.94-68.13-30-42.33-54.78-54A116.72,116.72,0,0,0,369.06,253.51Z"/><ellipse class="cls-2" cx="240.49" cy="378.92" rx="88.71" ry="104.47"/><path d="M240.49,485.36c-50,0-90.67-47.75-90.67-106.44s40.67-106.45,90.67-106.45,90.68,47.75,90.68,106.45S290.49,485.36,240.49,485.36Zm0-208.94c-47.82,0-86.73,46-86.73,102.5s38.91,102.49,86.73,102.49,86.74-46,86.74-102.49S288.32,276.42,240.49,276.42Z"/><path d="M271.56,409.36a1.72,1.72,0,0,1-.39,0c-6.12-1.22-26.07-21.24-25.59-56.55a2,2,0,0,1,3.94.05c-.24,18.23,5.19,31.26,9.79,39,5.37,9,11.13,13.36,12.63,13.66a2,2,0,0,1-.38,3.91Z"/><ellipse class="cls-3" cx="237.95" cy="246.78" rx="112.86" ry="107.8"/><ellipse class="cls-1" cx="292.26" cy="237.74" rx="33.65" ry="12.47"/><ellipse class="cls-1" cx="192.02" cy="237.74" rx="33.65" ry="12.47"/><path d="M292.26,252.18c-17.27,0-35.62-5.06-35.62-14.44S275,223.3,292.26,223.3s35.62,5.06,35.62,14.44S309.53,252.18,292.26,252.18Zm0-24.94c-18.13,0-31.68,5.54-31.68,10.5s13.55,10.5,31.68,10.5,31.67-5.55,31.67-10.5S310.39,227.24,292.26,227.24Z"/><path d="M192,252.18c-17.26,0-35.62-5.06-35.62-14.44S174.76,223.3,192,223.3s35.62,5.06,35.62,14.44S209.29,252.18,192,252.18Zm0-24.94c-18.13,0-31.67,5.54-31.67,10.5s13.54,10.5,31.67,10.5,31.68-5.55,31.68-10.5S210.15,227.24,192,227.24Z"/><ellipse cx="293.67" cy="237.97" rx="8.94" ry="12.24"/><path d="M198.85,237.27c0,6.76-4,12.23-8.94,12.23S181,244,181,237.27,185,225,189.91,225,198.85,230.51,198.85,237.27Z"/><path d="M266.61,299.48A2,2,0,0,1,264.7,298c-.17-.64-4.38-15.72-22.11-15.94-20.78-.24-27.58,12.93-27.86,13.49a2,2,0,0,1-3.54-1.74c.32-.65,8.11-16,31.45-15.69,20.79.25,25.83,18.7,25.88,18.89a2,2,0,0,1-1.41,2.4A1.77,1.77,0,0,1,266.61,299.48Z"/><path d="M236.73,298.3a2,2,0,0,1-1.53-3.22,14.51,14.51,0,0,1,17.43-3.83,2,2,0,0,1-1.69,3.57c-7.45-3.54-12.47,2.49-12.68,2.75A2,2,0,0,1,236.73,298.3Z"/><path d="M238,356.55c-63.32,0-114.83-49.24-114.83-109.77S174.63,137,238,137s114.83,49.25,114.83,109.77S301.27,356.55,238,356.55ZM238,141c-61.14,0-110.88,47.47-110.88,105.82S176.81,352.61,238,352.61s110.88-47.47,110.88-105.83S299.09,141,238,141Z"/><path d="M307.79,215H281.44a2,2,0,1,1,0-3.94h26.35a2,2,0,0,1,0,3.94Z"/><path d="M202.85,215H176.49a2,2,0,1,1,0-3.94h26.36a2,2,0,0,1,0,3.94Z"/><path d="M117.2,333.59a2,2,0,0,1-1-3.69l31.34-17.6a2,2,0,0,1,1.93,3.44l-31.33,17.6A2,2,0,0,1,117.2,333.59Z"/><path class="cls-1" d="M144,271.62a5.41,5.41,0,0,1-5.25-4.12,88,88,0,0,1-1.9-34.06A5.41,5.41,0,1,1,147.58,235a77.35,77.35,0,0,0,1.7,29.89,5.4,5.4,0,0,1-4,6.54A5.18,5.18,0,0,1,144,271.62Z"/><path class="cls-1" d="M146.48,223.65a5.5,5.5,0,0,1-2-.37,5.41,5.41,0,0,1-3.07-7,85.41,85.41,0,0,1,30.26-38.39,5.41,5.41,0,0,1,5.83,9.12,75.77,75.77,0,0,0-26,33.21A5.4,5.4,0,0,1,146.48,223.65Z"/><path d="M222.14,388.65a1.23,1.23,0,0,1-.27,0,2,2,0,0,1-1.68-2.22l4.38-31.82a2,2,0,0,1,3.91.53L224.09,387A2,2,0,0,1,222.14,388.65Z"/><path d="M131.79,208.42a1.74,1.74,0,0,1-.45-.06c-13.86-3.23-39.54-6.51-39.8-6.55a2,2,0,1,1,.5-3.91c.26,0,26.14,3.34,40.2,6.62a2,2,0,0,1-.45,3.9Z"/><path d="M252.92,141.73A2,2,0,0,1,251,140.2c-4.75-20.64-.15-35,4.55-43.39,5.14-9.19,11.41-13.42,11.67-13.59a2,2,0,1,1,2.19,3.28,38.08,38.08,0,0,0-10.52,12.42c-6.16,11.15-7.56,25.12-4,40.39a2,2,0,0,1-1.48,2.37A2.12,2.12,0,0,1,252.92,141.73Z"/><path d="M231.43,139.56a2,2,0,0,1-1.94-1.61c-2.56-14-9.8-38.86-9.87-39.11a2,2,0,0,1,3.79-1.11c.07.25,7.36,25.31,10,39.51a2,2,0,0,1-1.59,2.29A2.07,2.07,0,0,1,231.43,139.56Z"/><path d="M345.54,209.11a2,2,0,0,1-1.21-3.53c16.81-12.88,31.78-14.65,41.37-13.85,10.5.86,16.94,4.81,17.21,5a2,2,0,0,1-2.08,3.35,38,38,0,0,0-15.67-4.42c-12.7-1-26,3.53-38.43,13.07A2,2,0,0,1,345.54,209.11Z"/><path d="M334.83,190.54A2,2,0,0,1,333.7,187c11.67-8.13,31.3-25,31.5-25.2a2,2,0,1,1,2.57,3c-.19.17-20,17.2-31.82,25.45A1.93,1.93,0,0,1,334.83,190.54Z"/><path d="M367,355.51h-.21a2,2,0,0,1-1.76-2.16,38,38,0,0,0-2.9-16c-4.69-11.84-14.58-21.8-28.61-28.79a2,2,0,0,1,1.76-3.53c18.95,9.45,27.1,22.12,30.6,31.09,3.83,9.81,3.11,17.33,3.08,17.65A2,2,0,0,1,367,355.51Z"/><path d="M380.24,307.83a1.91,1.91,0,0,1-.77-.17c-.25-.1-24.22-10.4-36.84-17.42a2,2,0,0,1,1.92-3.44C357,293.72,380.78,303.94,381,304a2,2,0,0,1-.78,3.79Z"/></g></g></svg>